<svg  id="svg-logo" class="dark brand-logo" width="100%" height="26" viewBox="0 0 1816 303" fill="none" xmlns="http://www.w3.org/2000/svg">
                        <path d="M1038.8 83.16C1043.2 83.16 1047.27 83.9733 1051 85.6C1054.76 87.2267 1057.92 89.5067 1060.48 92.44L1055.32 97.44C1053.35 95.0667 1050.93 93.2267 1048.08 91.92C1045.23 90.5867 1042.13 89.92 1038.8 89.92C1032.56 89.92 1027.39 91.9733 1023.28 96.08C1019.2 100.187 1017.16 105.493 1017.16 112C1017.16 115.227 1017.71 118.227 1018.8 121C1019.92 123.747 1021.43 126.08 1023.32 128C1025.21 129.893 1027.47 131.387 1030.08 132.48C1032.69 133.547 1035.49 134.08 1038.48 134.08C1044.16 134.08 1048.71 132.533 1052.12 129.44C1055.53 126.32 1057.51 122 1058.04 116.48H1041.24V109.92H1065.68C1065.73 110.72 1065.76 111.307 1065.76 111.68C1065.76 117.12 1064.68 122.04 1062.52 126.44C1060.36 130.813 1057.19 134.307 1053 136.92C1048.84 139.507 1044 140.8 1038.48 140.8C1035.55 140.8 1032.68 140.4 1029.88 139.6C1027.08 138.773 1024.47 137.547 1022.04 135.92C1019.61 134.267 1017.48 132.307 1015.64 130.04C1013.83 127.773 1012.4 125.093 1011.36 122C1010.32 118.88 1009.8 115.547 1009.8 112C1009.8 107.867 1010.53 104.013 1012 100.44C1013.47 96.84 1015.48 93.7867 1018.04 91.28C1020.6 88.7467 1023.67 86.76 1027.24 85.32C1030.84 83.88 1034.69 83.16 1038.8 83.16ZM1118.27 133.4V140H1078.51V84H1117.87V90.6H1085.55V108.48H1116.83V115.12H1085.55V133.4H1118.27ZM1172.81 89.32L1169.21 95.04C1164.11 91.6 1158.58 89.88 1152.61 89.88C1148.45 89.88 1145.06 90.76 1142.45 92.52C1139.86 94.2533 1138.57 96.6133 1138.57 99.6C1138.57 102.107 1139.61 104.053 1141.69 105.44C1143.79 106.827 1146.98 107.787 1151.25 108.32L1156.17 108.92C1167.9 110.36 1173.77 115.32 1173.77 123.8C1173.77 127.4 1172.74 130.507 1170.69 133.12C1168.66 135.733 1165.99 137.667 1162.69 138.92C1159.38 140.173 1155.66 140.8 1151.53 140.8C1147.5 140.8 1143.47 140.147 1139.45 138.84C1135.45 137.533 1132.11 135.76 1129.45 133.52L1133.29 127.92C1135.31 129.68 1137.99 131.16 1141.33 132.36C1144.69 133.533 1148.09 134.12 1151.53 134.12C1155.87 134.12 1159.45 133.267 1162.25 131.56C1165.05 129.853 1166.45 127.467 1166.45 124.4C1166.45 121.867 1165.34 119.92 1163.13 118.56C1160.91 117.173 1157.55 116.2 1153.05 115.64L1147.85 115C1145.45 114.707 1143.27 114.213 1141.33 113.52C1139.38 112.827 1137.63 111.893 1136.09 110.72C1134.57 109.547 1133.38 108.053 1132.53 106.24C1131.67 104.427 1131.25 102.36 1131.25 100.04C1131.25 96.5467 1132.22 93.5067 1134.17 90.92C1136.11 88.3333 1138.69 86.4 1141.89 85.12C1145.09 83.84 1148.67 83.2 1152.65 83.2C1160.17 83.2 1166.89 85.24 1172.81 89.32ZM1225.43 84V90.68H1206.35V140H1199.31V90.68H1180.19V84H1225.43ZM1255.65 84L1278.45 140H1270.89L1264.73 124.72H1237.57L1231.45 140H1224.13L1246.89 84H1255.65ZM1251.17 90.96L1240.25 118.04H1262.05L1251.17 90.96ZM1240.93 77.48L1237.05 73.76C1238.31 72.24 1239.64 71.12 1241.05 70.4C1242.47 69.68 1244.12 69.32 1246.01 69.32C1247.56 69.32 1248.99 69.5733 1250.29 70.08C1251.63 70.5867 1252.8 71.0933 1253.81 71.6C1254.85 72.1067 1255.79 72.36 1256.61 72.36C1258.32 72.36 1260.01 71.5067 1261.69 69.8L1265.57 73.56C1264.32 75.08 1262.99 76.2 1261.57 76.92C1260.16 77.64 1258.51 78 1256.61 78C1255.41 78 1254.27 77.84 1253.17 77.52C1252.08 77.2 1251.2 76.8533 1250.53 76.48C1249.87 76.08 1249.12 75.72 1248.29 75.4C1247.47 75.08 1246.71 74.92 1246.01 74.92C1244.33 74.92 1242.64 75.7733 1240.93 77.48ZM1297.16 86.88C1301.59 84.4 1306.56 83.16 1312.08 83.16C1317.6 83.16 1322.57 84.4 1327 86.88C1331.43 89.3333 1334.88 92.76 1337.36 97.16C1339.84 101.533 1341.08 106.48 1341.08 112C1341.08 117.52 1339.84 122.48 1337.36 126.88C1334.88 131.253 1331.43 134.68 1327 137.16C1322.57 139.613 1317.6 140.84 1312.08 140.84C1306.56 140.84 1301.59 139.613 1297.16 137.16C1292.73 134.68 1289.28 131.253 1286.8 126.88C1284.32 122.48 1283.08 117.52 1283.08 112C1283.08 106.48 1284.32 101.533 1286.8 97.16C1289.28 92.76 1292.73 89.3333 1297.16 86.88ZM1327.56 96.08C1323.48 91.9733 1318.32 89.92 1312.08 89.92C1305.84 89.92 1300.67 91.9733 1296.56 96.08C1292.48 100.187 1290.44 105.493 1290.44 112C1290.44 118.507 1292.48 123.813 1296.56 127.92C1300.67 132.027 1305.84 134.08 1312.08 134.08C1318.32 134.08 1323.48 132.027 1327.56 127.92C1331.67 123.813 1333.72 118.507 1333.72 112C1333.72 105.493 1331.67 100.187 1327.56 96.08ZM1012.96 185H1034.32C1043.36 185 1050.56 187.533 1055.92 192.6C1061.31 197.667 1064 204.467 1064 213C1064 221.533 1061.31 228.333 1055.92 233.4C1050.56 238.467 1043.36 241 1034.32 241H1012.96V185ZM1034.32 191.68H1020V234.32H1034.32C1041.49 234.32 1047 232.4 1050.84 228.56C1054.68 224.693 1056.6 219.507 1056.6 213C1056.6 206.467 1054.68 201.28 1050.84 197.44C1047 193.6 1041.49 191.68 1034.32 191.68ZM1116.55 234.4V241H1076.79V185H1116.15V191.6H1083.83V209.48H1115.11V216.12H1083.83V234.4H1116.55ZM1189.82 209.48V216.12H1159.38V241H1152.34V185H1191.41V191.68H1159.38V209.48H1189.82ZM1204.21 185H1226.45C1232.77 185 1237.61 186.373 1240.97 189.12C1244.36 191.867 1246.05 195.787 1246.05 200.88C1246.05 205.76 1244.29 209.64 1240.77 212.52C1237.25 215.4 1232.49 216.84 1226.49 216.84H1226.05L1245.77 241H1237.05L1217.81 216.84H1211.25V241H1204.21V185ZM1226.29 191.6H1211.25V210.44H1226.29C1234.58 210.44 1238.73 207.253 1238.73 200.88C1238.73 194.693 1234.58 191.6 1226.29 191.6ZM1269.43 187.88C1273.85 185.4 1278.83 184.16 1284.35 184.16C1289.87 184.16 1294.84 185.4 1299.27 187.88C1303.69 190.333 1307.15 193.76 1309.63 198.16C1312.11 202.533 1313.35 207.48 1313.35 213C1313.35 218.52 1312.11 223.48 1309.63 227.88C1307.15 232.253 1303.69 235.68 1299.27 238.16C1294.84 240.613 1289.87 241.84 1284.35 241.84C1278.83 241.84 1273.85 240.613 1269.43 238.16C1265 235.68 1261.55 232.253 1259.07 227.88C1256.59 223.48 1255.35 218.52 1255.35 213C1255.35 207.48 1256.59 202.533 1259.07 198.16C1261.55 193.76 1265 190.333 1269.43 187.88ZM1299.83 197.08C1295.75 192.973 1290.59 190.92 1284.35 190.92C1278.11 190.92 1272.93 192.973 1268.83 197.08C1264.75 201.187 1262.71 206.493 1262.71 213C1262.71 219.507 1264.75 224.813 1268.83 228.92C1272.93 233.027 1278.11 235.08 1284.35 235.08C1290.59 235.08 1295.75 233.027 1299.83 228.92C1303.93 224.813 1305.99 219.507 1305.99 213C1305.99 206.493 1303.93 201.187 1299.83 197.08ZM1363.48 185V191.68H1344.4V241H1337.36V191.68H1318.24V185H1363.48ZM1393.7 185L1416.5 241H1408.94L1402.78 225.72H1375.62L1369.5 241H1362.18L1384.94 185H1393.7ZM1389.22 191.96L1378.3 219.04H1400.1L1389.22 191.96ZM1465.62 190.32L1462.02 196.04C1456.93 192.6 1451.39 190.88 1445.42 190.88C1441.26 190.88 1437.87 191.76 1435.26 193.52C1432.67 195.253 1431.38 197.613 1431.38 200.6C1431.38 203.107 1432.42 205.053 1434.5 206.44C1436.61 207.827 1439.79 208.787 1444.06 209.32L1448.98 209.92C1460.71 211.36 1466.58 216.32 1466.58 224.8C1466.58 228.4 1465.55 231.507 1463.5 234.12C1461.47 236.733 1458.81 238.667 1455.5 239.92C1452.19 241.173 1448.47 241.8 1444.34 241.8C1440.31 241.8 1436.29 241.147 1432.26 239.84C1428.26 238.533 1424.93 236.76 1422.26 234.52L1426.1 228.92C1428.13 230.68 1430.81 232.16 1434.14 233.36C1437.5 234.533 1440.9 235.12 1444.34 235.12C1448.69 235.12 1452.26 234.267 1455.06 232.56C1457.86 230.853 1459.26 228.467 1459.26 225.4C1459.26 222.867 1458.15 220.92 1455.94 219.56C1453.73 218.173 1450.37 217.2 1445.86 216.64L1440.66 216C1438.26 215.707 1436.09 215.213 1434.14 214.52C1432.19 213.827 1430.45 212.893 1428.9 211.72C1427.38 210.547 1426.19 209.053 1425.34 207.24C1424.49 205.427 1424.06 203.36 1424.06 201.04C1424.06 197.547 1425.03 194.507 1426.98 191.92C1428.93 189.333 1431.5 187.4 1434.7 186.12C1437.9 184.84 1441.49 184.2 1445.46 184.2C1452.98 184.2 1459.7 186.24 1465.62 190.32Z" fill="#3F4444"/>
                        <path d="M824.96 128.852L840.66 94.1383C803.744 73.9903 738.921 70.985 712.407 97.2729C702.162 104.465 685.282 145.665 714.804 169.26C728.201 179.641 749.76 185.151 776.488 187.575C795.376 191.31 804.888 197.848 795.038 210.87C785.95 220.996 746.625 221.443 709.87 201.753L691.976 236.244C722.925 257.933 780.668 262.438 813.804 246.625C855.432 228.182 850.294 177.401 828.035 162.486C791.335 137.895 744.775 153.937 745.132 129.02C748.094 119.275 757.686 112.987 790.049 117.071C802.595 119.749 819.301 125.418 824.96 128.852Z" fill="#76C96E"/>
                        <path d="M513.469 87.4355L556.807 87.3718L556.532 182.388C561.665 210.617 585.796 201.612 611.595 189.342L611.93 86.812L656.944 86.8211L656.549 184.847L532.683 236.492C524.155 231.358 516.561 223.878 513.352 205.374L513.469 87.4355Z" fill="#76C96E"/>
                        <path d="M550.651 256.049C550.651 256.049 550.147 255.376 550.151 254.028C550.154 253.045 550.66 252.555 550.66 252.555L653.502 207.543C655.105 207.814 656.298 208.506 656.777 209.934L656.677 256.049H550.651Z" fill="#3F4444"/>
                        <path d="M423.762 256.048L469.273 255.961L468.784 3.50367C468.236 2.63866 467.497 2.20312 466.655 2L422.885 18.0705L423.762 256.048Z" fill="#76C96E"/>
                        <path d="M279.349 46.326L321.339 29.0813C322.809 29.4097 324.097 30.1373 324.606 32.5494L324.49 61.101L279.091 60.9171L279.349 46.326Z" fill="#76C96E"/>
                        <path d="M297.578 75.3878C246.978 75.3878 205.958 115.829 205.957 165.717C205.957 189.675 215.609 212.65 232.792 229.591C249.974 246.531 273.279 256.049 297.578 256.049C321.878 256.049 345.183 246.531 362.366 229.591C379.548 212.65 389.201 189.675 389.201 165.717C389.2 115.829 348.179 75.3878 297.578 75.3878ZM297.749 120.644C298.285 120.644 298.822 120.654 299.359 120.673C299.895 120.693 300.432 120.723 300.968 120.763C301.504 120.803 302.04 120.853 302.573 120.912C303.108 120.972 303.641 121.041 304.172 121.12C304.704 121.2 305.234 121.29 305.762 121.39C306.292 121.489 306.818 121.598 307.344 121.717C307.869 121.835 308.391 121.963 308.912 122.101C309.432 122.239 309.95 122.387 310.465 122.543C310.98 122.702 311.493 122.869 312.003 123.045C312.513 123.222 313.02 123.407 313.523 123.603C314.027 123.797 314.528 124.001 315.024 124.215C315.521 124.429 316.012 124.651 316.501 124.884C316.989 125.116 317.474 125.357 317.954 125.607C318.434 125.857 318.911 126.115 319.383 126.383C319.855 126.651 320.321 126.928 320.783 127.213C321.245 127.497 321.702 127.79 322.154 128.092C322.605 128.394 323.052 128.704 323.493 129.024C323.935 129.342 324.37 129.667 324.8 130.002C325.23 130.336 325.656 130.68 326.074 131.031C326.492 131.381 326.904 131.739 327.31 132.105C327.716 132.471 328.116 132.844 328.509 133.224C328.903 133.605 329.289 133.993 329.668 134.388C330.048 134.783 330.421 135.184 330.788 135.592C331.153 136.002 331.513 136.417 331.864 136.84C332.216 137.262 332.561 137.69 332.898 138.125C333.235 138.559 333.564 139.001 333.885 139.447C334.208 139.894 334.522 140.347 334.829 140.805C335.135 141.263 335.433 141.727 335.724 142.197C336.014 142.667 336.296 143.142 336.571 143.623C336.845 144.103 337.111 144.589 337.369 145.079C337.626 145.569 337.875 146.064 338.115 146.564C338.356 147.063 338.587 147.566 338.81 148.074C339.033 148.582 339.249 149.094 339.455 149.609C339.66 150.126 339.855 150.645 340.043 151.169C340.231 151.692 340.411 152.219 340.581 152.748C340.751 153.278 340.911 153.81 341.062 154.347C341.213 154.882 341.355 155.421 341.487 155.963C341.621 156.503 341.745 157.047 341.86 157.592C341.974 158.137 342.078 158.685 342.173 159.235C342.268 159.784 342.354 160.335 342.431 160.888C342.507 161.441 342.574 161.995 342.631 162.55C342.689 163.106 342.737 163.662 342.775 164.22C342.813 164.776 342.843 165.334 342.862 165.893C342.882 166.45 342.892 167.008 342.893 167.565C342.893 169.205 342.811 170.842 342.647 172.472C342.482 174.101 342.234 175.72 341.906 177.322C341.579 178.925 341.171 180.508 340.684 182.066C340.197 183.624 339.631 185.155 338.989 186.651C338.349 188.148 337.634 189.609 336.846 191.029C336.058 192.448 335.198 193.822 334.272 195.147C333.345 196.472 332.353 197.746 331.298 198.963C330.243 200.18 329.128 201.34 327.956 202.437C326.786 203.533 325.56 204.565 324.284 205.529C323.01 206.491 321.687 207.383 320.322 208.202C318.957 209.021 317.552 209.766 316.111 210.432C314.672 211.099 313.2 211.686 311.701 212.194C310.202 212.699 308.679 213.123 307.138 213.463C305.596 213.804 304.037 214.061 302.469 214.233C300.902 214.404 299.328 214.489 297.752 214.489C296.175 214.489 294.6 214.404 293.031 214.233C291.464 214.061 289.907 213.804 288.366 213.463C286.825 213.123 285.301 212.699 283.802 212.194C282.303 211.687 280.83 211.099 279.39 210.432C277.949 209.766 276.544 209.021 275.179 208.202C273.814 207.383 272.492 206.491 271.217 205.529C269.942 204.565 268.715 203.533 267.544 202.437C266.374 201.34 265.257 200.18 264.203 198.963C263.149 197.746 262.157 196.472 261.229 195.147C260.303 193.822 259.445 192.447 258.657 191.029C257.869 189.609 257.153 188.149 256.512 186.651C255.871 185.155 255.306 183.624 254.819 182.066C254.332 180.508 253.923 178.925 253.595 177.322C253.268 175.72 253.022 174.101 252.857 172.472C252.691 170.842 252.609 169.205 252.608 167.565C252.609 165.927 252.691 164.291 252.857 162.662C253.022 161.033 253.268 159.413 253.595 157.812C253.923 156.208 254.332 154.625 254.819 153.065C255.306 151.508 255.871 149.978 256.512 148.483C257.153 146.985 257.869 145.525 258.657 144.105C259.445 142.686 260.303 141.312 261.229 139.987C262.157 138.661 263.149 137.387 264.203 136.168C265.258 134.952 266.374 133.792 267.544 132.697C268.715 131.601 269.942 130.569 271.217 129.605C272.492 128.642 273.814 127.749 275.179 126.93C276.545 126.111 277.949 125.368 279.39 124.702C280.83 124.035 282.303 123.447 283.802 122.94C285.301 122.434 286.825 122.01 288.366 121.668C289.907 121.329 291.464 121.072 293.031 120.901C294.6 120.73 296.175 120.644 297.749 120.644Z" fill="#76C96E"/>
                        <path fill-rule="evenodd" clip-rule="evenodd" d="M0 33.1861H50.4167L105.895 187.274L162.241 33.1013L212.552 33.5216L131.599 256.049L80.1328 255.563L0 33.1861Z" fill="#76C96E"/>
                        <path d="M925 0V302.943" stroke="#3F4444" stroke-width="7"/>
                    </svg>