<svg width="1719" height="1024" viewBox="0 0 1719 1024" fill="none" xmlns="http://www.w3.org/2000/svg">
<g clip-path="url(#clip0_536_2)">
<rect width="1719" height="1024" fill="url(#paint0_linear_536_2)"/>
<path d="M-88.1218 617.336C-89.8355 591 -55.1917 579.889 -41.2677 602.309V602.309C-37.7027 608.049 -31.9943 612.13 -25.4091 613.645L229.638 672.324C236.715 673.952 243.536 676.536 249.916 680.005L361.312 740.574C368.267 744.355 375.745 747.084 383.501 748.669L650.139 803.188C658.527 804.903 666.585 807.954 674.006 812.223L921.802 954.778L1122.14 1094.68L14.8234 1072.25C-26.7107 1071.41 -60.6896 1038.91 -63.3871 997.458L-88.1218 617.336Z" fill="#6ED761" fill-opacity="0.19"/>
<path d="M-386.954 694.296C-383.976 638.554 -326.268 602.922 -275.098 625.229L-158.165 676.206C-150.241 679.66 -142.928 684.377 -136.513 690.171L-82.5982 738.868C-72.4984 747.99 -60.2383 754.385 -46.9777 757.447L141.644 801.009C146.737 802.185 151.703 803.858 156.47 806.003L405.544 918.081C411.163 920.609 417.054 922.48 423.102 923.655L604.888 959.003C609.62 959.923 614.258 961.269 618.748 963.024L911 1077.28L-322.515 1122.46C-369.505 1124.19 -407.838 1085.2 -405.33 1038.25L-386.954 694.296Z" fill="#6ED761" fill-opacity="0.34"/>
<path d="M512.48 1193.83C486.705 1142.9 521.031 1082.14 577.956 1077.92L654.94 1072.23C672.059 1070.96 688.318 1064.22 701.313 1053L954.967 834.037C967.234 823.447 982.428 816.833 998.537 815.07L1263.88 786.02C1274.39 784.87 1284.57 781.648 1293.82 776.542L1427.92 702.557C1435.46 698.398 1443.62 695.483 1452.09 693.925L1765.3 636.278L1781.87 970.262C1783.61 1005.34 1762.27 1037.45 1729.26 1049.43L706.144 1420.62C668.106 1434.43 625.752 1417.65 607.48 1381.55L512.48 1193.83Z" fill="#6ED761" fill-opacity="0.25"/>
<path d="M825.696 1138.49C822.333 1134.74 818.315 1131.63 813.84 1129.32V1129.32C783.411 1113.62 784.044 1069.9 814.915 1055.08L1134.02 901.977C1143.45 897.453 1153.68 894.821 1164.12 894.232L1513.85 874.496C1524.06 873.92 1534.06 871.393 1543.31 867.052L1764.36 763.372C1773.42 759.123 1783.2 756.611 1793.18 755.967L2020.76 741.288L1737.3 1053.12L1245.53 1487.66C1212.6 1516.76 1162.35 1513.84 1133.01 1481.12L825.696 1138.49Z" fill="#6ED761" fill-opacity="0.36"/>
</g>
<defs>
<linearGradient id="paint0_linear_536_2" x1="873.5" y1="-246.5" x2="873.5" y2="1402.5" gradientUnits="userSpaceOnUse">
<stop offset="0.0723974"/>
<stop offset="0.318457" stop-color="#3F4444"/>
<stop offset="0.551317" stop-color="#3F4444"/>
<stop offset="0.69038"/>
</linearGradient>
<clipPath id="clip0_536_2">
<rect width="1719" height="1024" fill="white"/>
</clipPath>
</defs>
</svg>
